<?xml version="1.0" encoding="UTF-8" standalone="no"?>
<!DOCTYPE svg PUBLIC "-//W3C//DTD SVG 1.1//EN" "http://www.w3.org/Graphics/SVG/1.1/DTD/svg11.dtd">
<svg width="100%" height="100%" viewBox="0 0 756 756" version="1.1" xmlns="http://www.w3.org/2000/svg" xmlns:xlink="http://www.w3.org/1999/xlink" xml:space="preserve" xmlns:serif="http://www.serif.com/" style="fill-rule:evenodd;clip-rule:evenodd;stroke-linecap:square;stroke-linejoin:bevel;stroke-miterlimit:1.5;">
    <g transform="matrix(1,0,0,1,-4,3)">
        <path d="M177.745,605.506L177.745,153.33" style="fill:none;stroke:black;stroke-width:41.45px;"/>
    </g>
    <g transform="matrix(1,0,0,1,-4,3)">
        <path d="M177.745,153.33L597.693,153.33L597.693,401.575L177.745,401.575" style="fill:none;stroke:black;stroke-width:41.45px;"/>
    </g>
    <g transform="matrix(1,0,0,1.06167,69.1999,101.944)">
        <rect x="109.382" y="64.457" width="68.364" height="50.784"/>
    </g>
    <g transform="matrix(1,0,0,1.06167,137.563,158.031)">
        <rect x="109.382" y="64.457" width="68.364" height="50.784"/>
    </g>
    <g transform="matrix(1,0,0,1.06167,205.927,101.944)">
        <rect x="109.382" y="64.457" width="68.364" height="50.784"/>
    </g>
    <g transform="matrix(1,0,0,1.06167,274.291,155.861)">
        <rect x="109.382" y="64.457" width="68.364" height="50.784"/>
    </g>
    <g transform="matrix(1,0,0,1.06167,342.654,101.944)">
        <rect x="109.382" y="64.457" width="68.364" height="50.784"/>
    </g>
    <g transform="matrix(1,0,0,1.06167,411.018,155.861)">
        <rect x="109.382" y="64.457" width="68.364" height="50.784"/>
    </g>
    <g transform="matrix(1,0,0,1.06167,69.1999,210.518)">
        <rect x="109.382" y="64.457" width="68.364" height="50.784"/>
    </g>
    <g transform="matrix(1,0,0,1.06167,137.563,266.605)">
        <rect x="109.382" y="64.457" width="68.364" height="50.784"/>
    </g>
    <g transform="matrix(1,0,0,1.06167,205.927,210.518)">
        <rect x="109.382" y="64.457" width="68.364" height="50.784"/>
    </g>
    <g transform="matrix(1,0,0,1.06167,274.291,264.434)">
        <rect x="109.382" y="64.457" width="68.364" height="50.784"/>
    </g>
    <g transform="matrix(1,0,0,1.06167,342.654,210.518)">
        <rect x="109.382" y="64.457" width="68.364" height="50.784"/>
    </g>
    <g transform="matrix(1,0,0,1.06167,411.018,264.434)">
        <rect x="109.382" y="64.457" width="68.364" height="50.784"/>
    </g>
</svg>
