<?xml version="1.0" encoding="UTF-8" standalone="no"?>
<!DOCTYPE svg PUBLIC "-//W3C//DTD SVG 1.1//EN" "http://www.w3.org/Graphics/SVG/1.1/DTD/svg11.dtd">
<svg width="100%" height="100%" viewBox="0 0 64 64" version="1.1" xmlns="http://www.w3.org/2000/svg" xmlns:xlink="http://www.w3.org/1999/xlink" xml:space="preserve" xmlns:serif="http://www.serif.com/" style="fill-rule:evenodd;clip-rule:evenodd;stroke-linejoin:round;stroke-miterlimit:2;">
    <path d="M10.529,20.017C9.193,22.403 8.244,25.034 7.765,27.825C6.263,28.47 4.886,29.35 3.682,30.421C3.968,25.209 5.664,20.371 8.395,16.281C8.448,17.139 8.731,18.008 9.375,18.781C9.78,19.268 10.157,19.679 10.529,20.017ZM12.652,11.269C16.902,7.301 22.372,4.622 28.434,3.861L27.517,7.82C24.304,8.413 21.309,9.632 18.663,11.344C17.852,11.329 16.995,11.337 16.112,11.337C16.112,11.337 14.32,11.196 12.652,11.269ZM21.904,54.423C23.53,55.158 25.251,55.72 27.042,56.087L27.967,60.077C24.179,59.536 20.631,58.247 17.479,56.362C19.07,55.954 20.56,55.292 21.904,54.423ZM36.958,56.087C38.807,55.708 40.58,55.121 42.253,54.352C43.631,55.201 45.155,55.835 46.778,56.207C43.562,58.176 39.924,59.522 36.033,60.077L36.958,56.087ZM56.198,27.615C55.538,23.955 54.067,20.576 51.978,17.67C52.881,16.697 53.807,15.386 53.927,14.019C57.606,18.499 59.941,24.124 60.31,30.276C59.101,29.18 57.714,28.276 56.198,27.615ZM46.537,12.173C43.611,10.023 40.193,8.505 36.483,7.82L35.566,3.861C41.151,4.562 46.233,6.891 50.322,10.357C48.998,10.472 47.636,11.298 46.537,12.173Z" style="fill:rgb(0,188,242);"/>
    <g transform="matrix(1.15303,-1.12354e-16,1.47014e-16,-0.887228,-4.90121,64.7336)">
        <path d="M35.782,18.194L32,0.827L28.218,18.194L35.782,18.194Z" style="fill:rgb(0,181,242);"/>
    </g>
    <g transform="matrix(-1.15303,1.12354e-16,-1.47014e-16,0.887228,68.8929,-0.733625)">
        <path d="M35.782,18.194L32,0.827L28.218,18.194L35.782,18.194Z" style="fill:rgb(0,181,242);"/>
    </g>
    <g transform="matrix(0.0779097,0,0,0.0779097,0.989181,2.51904)">
        <path d="M636.011,340.905C622.372,340.905 609.13,342.203 596.452,345.355L545.948,209.588L562.403,209.588C588.302,209.588 612.796,200.057 631.378,182.024L648.806,165.31C656.727,157.623 656.914,145.074 649.227,137.152C641.54,129.231 628.889,129.095 620.971,136.782L603.542,153.318C592.461,164.074 577.849,169.619 562.406,169.619L517.166,169.619C510.617,169.619 504.484,173.232 500.751,178.611C497.018,183.993 496.155,191.062 498.446,197.196L517.667,248.811C517.545,248.809 517.419,249.187 517.297,249.187C517.254,249.187 517.212,249.552 517.166,249.552L261.451,249.552L226.918,191.369L264.428,178.326C273.665,175.153 279.253,166.203 277.646,156.568C276.037,146.936 267.705,140.312 257.937,140.312L148.135,140.312C132.748,140.312 120.225,152.318 120.225,167.706C120.225,191.528 139.585,210.656 163.379,210.656C168.148,210.656 172.877,209.732 177.439,208.168L188.371,204.35L223.398,262.957L196.495,343.65C187.67,341.867 178.606,340.745 169.336,340.45C122.471,338.95 78.599,356.804 46.188,390.267C15.03,422.437 -1.346,464.85 0.085,509.693C2.835,595.853 72.484,665.499 158.644,668.248C160.437,668.304 162.214,668.334 163.994,668.334C208.786,668.334 250.623,650.439 281.795,618.258C307.011,592.218 322.537,558.628 326.784,523.99L358.893,523.99C365.815,529.319 374.776,533.673 384.576,533.673C406.413,533.673 424.18,515.991 424.18,494.151C424.18,487.061 422.283,480.458 419.005,474.692L531.024,284.704L559.142,360.079C507.359,387.68 472.02,442.226 472.02,504.886C472.02,595.312 545.585,668.88 636.011,668.88C726.437,668.88 800,595.315 800,504.891C800,414.468 726.437,340.905 636.011,340.905ZM482.209,289.521L384.674,454.96C384.639,454.96 384.607,454.794 384.576,454.794C384.461,454.794 384.352,455.05 384.237,455.053L285.304,289.524L482.209,289.524L482.209,289.521ZM250.437,308.194L350.028,474.759C348.382,477.693 347.127,481.362 346.266,484.026L326.746,484.026C319.843,428.073 283.945,379.79 234.402,356.13L250.437,308.194ZM198.36,484.026C197.02,481.362 195.48,479.96 193.756,478.076L217.376,407.133C245.939,422.92 266.834,452.053 272.887,484.026L198.36,484.026ZM243.517,581.185C221.629,603.782 192.064,615.929 160.346,614.904C102.203,613.049 55.205,566.094 53.35,507.95C52.383,477.658 63.432,449.034 84.468,427.319C105.512,405.593 133.753,393.635 163.989,393.635C165.201,393.635 166.413,393.661 167.636,393.699C171.638,393.826 175.579,394.192 179.464,394.735L155.574,466.409C138.072,470.504 124.984,486.205 124.984,504.939C124.984,526.777 142.75,544.376 164.586,544.376C179.379,544.376 192.282,537.315 199.082,523.993L272.885,523.993C269.018,545.308 258.976,565.222 243.517,581.185ZM636.011,615.599C574.972,615.599 525.309,565.936 525.309,504.897C525.309,465.111 546.414,430.175 578.009,410.658L615.572,511.334C618.57,519.373 626.193,524.336 634.295,524.336C636.616,524.336 638.977,523.931 641.279,523.068C651.62,519.213 656.874,507.7 653.013,497.362L615.261,396.174C621.986,394.892 628.916,394.194 636.011,394.194C697.051,394.194 746.711,443.857 746.711,504.897C746.711,565.936 697.054,615.599 636.011,615.599Z" style="fill-rule:nonzero;"/>
    </g>
</svg>
