<?xml version="1.0" encoding="utf-8"?>
<!-- Generator: Adobe Illustrator 25.0.0, SVG Export Plug-In . SVG Version: 6.00 Build 0)  -->
<svg version="1.1" id="Ebene_1" xmlns="http://www.w3.org/2000/svg" xmlns:xlink="http://www.w3.org/1999/xlink" x="0px" y="0px"
     viewBox="0 0 308.3 56.9" style="enable-background:new 0 0 308.3 56.9;" xml:space="preserve">
<style type="text/css">
	.st0{fill:#010202;}
	.st1{fill:#62A1D8;}
	.st2{display:none;}
</style>
    <g id="Logo_neu">
	<g>
		<path class="st0" d="M25.7,44.1V26.5L19.3,40h-3.8L9.2,26.5v17.6H3.4V17.8h7.3l6.8,14.8l6.8-14.8h7.2V44L25.7,44.1L25.7,44.1z"/>
        <path class="st0" d="M49.5,44.1l-0.7-1.2c-1.8,0.9-3.7,1.6-5.8,1.6c-5.3,0-6.7-2.9-6.7-6.7V24.4h6v12.9c0,1.5,0.3,2.3,1.8,2.3
			c1.2,0,2.7-0.5,3.9-1V24.4h6V44L49.5,44.1L49.5,44.1z"/>
        <path class="st0" d="M70.3,44.1V31.2c0-1.5-0.4-2.4-1.9-2.4c-1.1,0-2.8,0.5-4,1v14.3h-6V24.4h4.4l0.7,1.2c1.7-0.8,3.7-1.6,5.9-1.6
			c5.3,0,6.7,3,6.7,6.7v13.2h-5.8V44.1z"/>
        <path class="st0" d="M80.5,21.6v-5h6.3v3.7L80.5,21.6z M80.7,44.1V24.4h6V44L80.7,44.1L80.7,44.1z"/>
        <path class="st0" d="M106.1,43.1c-2.1,0.6-5.1,1.3-7.5,1.3c-6.5,0-8.1-2.3-8.1-7.1v-5.9c0-5.2,2.4-7.3,7.7-7.3
			c2.1,0,5.1,0.3,7.7,0.8l-1.3,4.4c-1.5-0.3-4-0.5-5.3-0.5c-2.5,0-2.8,0.9-2.8,2.9v5.4c0,1.7,0.3,2.5,2.9,2.5c1.5,0,3.7-0.4,5.4-0.9
			L106.1,43.1z"/>
        <path class="st0" d="M121.2,44.1V30.9c0-1.3-0.5-2.1-1.8-2.1c-1.2,0-2.5,0.4-4,1v14.3h-6V17.8l6-1.2v8.7c1.4-0.6,3.3-1.2,5.1-1.2
			c4.3,0,6.8,1.8,6.8,6.8V44L121.2,44.1L121.2,44.1z"/>
        <path class="st0" d="M153.2,44.1l-4.8-19.6l-4.7,19.6h-7.9L130,17.8h6.7l3.4,20.6l4.9-19.8h7.2l4.9,19.8l3.4-20.6h6.3L161,44
			L153.2,44.1L153.2,44.1z"/>
        <path class="st0" d="M180.9,44.1l-0.4-1.2c-2.4,1.1-4.1,1.6-6.3,1.6c-4.1,0-6.2-2.2-6.2-5.4v-1c0-4,2.8-6,7.7-6h3.9v-1.6
			c-0.1-1.1-0.4-1.7-2.3-1.7c-2,0-5.5,0.4-7,0.7l-1.2-4.5c3.4-0.5,6.6-0.8,9.1-0.8c4.8,0,7.4,1.5,7.4,6.5v13.5L180.9,44.1
			L180.9,44.1z M179.6,35.5c-0.6,0-2.3,0-3.5,0.1c-1.6,0.1-2.2,0.8-2.2,1.8v1.1c0,0.9,0.5,1.4,1.5,1.4c1.1,0,3.4-0.7,4.3-1v-3.4
			H179.6z"/>
        <path class="st0" d="M188.5,48.2c4-0.9,6.5-1.7,7.1-3.6l0.2-0.5H194l-6.6-19.6h6.6l3.7,14.8l3.8-14.8h6.2l-7.2,20.9
			c-1.4,4-3,6.3-10.4,7.8L188.5,48.2z"/>
        <path class="st0" d="M225.6,38c0,3.5-2.3,6.4-8.2,6.4c-3.7,0-6.8-0.6-8.4-1.1l1.3-4.6c2.1,0.6,4.9,1,7,1c1.9,0,2.9-0.4,2.9-1.8
			c0-1-0.5-1.4-1.8-1.4H216c-3.7,0-6.6-1.4-6.6-5.5v-0.5c0-4.9,3.4-6.4,7.2-6.4c3.2,0,6.2,0.3,8.5,0.7l-1.3,4.4
			c-2.6-0.4-4.9-0.6-7.3-0.6c-1.4,0-1.7,0.7-1.7,1.5s0.3,1.3,1.4,1.3h2.5c3.2,0,6.9,1,6.9,6.1L225.6,38L225.6,38z"/>
	</g>
        <path class="st1" d="M245.6,38.2c0,3.4-2.7,6.1-6.1,6.1c-3.4,0-6.1-2.7-6.1-6.1c0-3.4,2.8-6.1,6.1-6.1
		C242.9,32.1,245.6,34.8,245.6,38.2"/>
        <path class="st0" d="M294.4,24.6c-0.6,0-1.2,0.1-1.8,0.2l0,0c-3.9-12.7-2.7-11.8-10-11.9v2c5.3,0,4.6-0.3,5.8,3.9h-17.5l-0.7-1.9
		c3.9-0.9,5-0.9,4.2-1.9h-8.7l0.6,2h1.8l0.6,1.6c-1.1,2.5-2.2,4.8-3,6.6c-1-0.3-2.1-0.6-3.2-0.6c-5.5,0-10,4.5-10,10s4.5,10,10,10
		c4.8,0,8.9-3.4,9.8-8c0.1,0,0.1,0,0.2,0c7.9-0.3,2.4,2.2,17.1-13.3c0.3,0.8,0.5,1.6,0.7,2.3c-3.6,1.5-6.1,5.1-6.1,9.2
		c0,5.5,4.5,10,10,10s10-4.5,10-10C304.4,29,299.9,24.6,294.4,24.6z M262.6,42.2c-4.3,0-7.8-3.5-7.8-7.8s3.5-7.8,7.8-7.8
		c0.8,0,1.5,0.2,2.3,0.4c-3.5,7.7-3.7,8-3.7,8.5c0.1,1.4,0.9,1,8.9,1C269.2,39.7,266.2,42.2,262.6,42.2z M263.9,34.4l2.9-6.5
		c2.1,1.4,3.5,3.8,3.5,6.5H263.9z M272.4,34.5v-0.2c0-3.4-1.8-6.6-4.8-8.4l-0.1-0.1l2.1-4.7l0.1,0.3l4.9,13L272.4,34.5z M276.7,34.1
		l-5-13.3h17.1L276.7,34.1z M294.4,42.3c-4.3,0-7.8-3.5-7.8-7.8c0-3.1,1.9-5.8,4.5-7.1c2.5,8,2.3,7.9,3.3,8c0.6,0,1-0.5,1-1
		c0-0.7,0.3,0.2-2.2-7.6c0.4-0.1,0.8-0.1,1.1-0.1c4.3,0,7.8,3.5,7.8,7.8S298.7,42.3,294.4,42.3z"/>
</g>
    <g id="Logo_vertikal_Vorlage" class="st2">
</g>
</svg>
