<?xml version="1.0" encoding="UTF-8" standalone="no"?>
<!DOCTYPE svg PUBLIC "-//W3C//DTD SVG 1.1//EN" "http://www.w3.org/Graphics/SVG/1.1/DTD/svg11.dtd">
<svg width="100%" height="100%" viewBox="0 0 320 80" version="1.1" xmlns="http://www.w3.org/2000/svg" xmlns:xlink="http://www.w3.org/1999/xlink" xml:space="preserve" xmlns:serif="http://www.serif.com/" style="fill-rule:evenodd;clip-rule:evenodd;stroke-linejoin:round;stroke-miterlimit:2;">
    <g transform="matrix(1.17961,0,0,1.24074,-30.1407,-5.59018)">
        <g transform="matrix(50,0,0,50,36.2667,55.36)">
            <path d="M0.637,-0L0.511,-0L0.281,-0.289L0.17,-0.289L0.17,-0L0.074,-0L0.074,-0.727L0.261,-0.727C0.303,-0.727 0.338,-0.725 0.366,-0.72C0.394,-0.716 0.421,-0.705 0.446,-0.688C0.472,-0.672 0.492,-0.651 0.507,-0.625C0.521,-0.6 0.529,-0.568 0.529,-0.53C0.529,-0.476 0.515,-0.432 0.488,-0.396C0.461,-0.36 0.424,-0.334 0.378,-0.316L0.637,-0ZM0.428,-0.522C0.428,-0.544 0.424,-0.562 0.417,-0.579C0.409,-0.595 0.397,-0.609 0.382,-0.619C0.368,-0.628 0.352,-0.635 0.334,-0.638C0.316,-0.642 0.293,-0.644 0.266,-0.644L0.17,-0.644L0.17,-0.37L0.255,-0.37C0.283,-0.37 0.308,-0.372 0.33,-0.377C0.352,-0.382 0.371,-0.392 0.387,-0.407C0.401,-0.421 0.411,-0.437 0.418,-0.456C0.424,-0.475 0.428,-0.497 0.428,-0.522Z" style="fill-rule:nonzero;"/>
        </g>
        <g transform="matrix(50,0,0,50,66.8575,55.36)">
            <path d="M0.371,-0.134L0.371,-0.286C0.349,-0.284 0.322,-0.281 0.288,-0.278C0.255,-0.274 0.228,-0.269 0.208,-0.263C0.183,-0.256 0.163,-0.244 0.147,-0.229C0.131,-0.213 0.123,-0.192 0.123,-0.164C0.123,-0.133 0.132,-0.109 0.149,-0.093C0.167,-0.077 0.193,-0.069 0.227,-0.069C0.256,-0.069 0.282,-0.076 0.305,-0.088C0.329,-0.101 0.351,-0.116 0.371,-0.134ZM0.371,-0.058C0.364,-0.053 0.354,-0.045 0.341,-0.035C0.329,-0.025 0.316,-0.017 0.305,-0.011C0.288,-0.003 0.273,0.004 0.258,0.008C0.242,0.013 0.221,0.015 0.194,0.015C0.171,0.015 0.15,0.011 0.13,0.002C0.11,-0.006 0.092,-0.018 0.077,-0.033C0.062,-0.048 0.05,-0.067 0.042,-0.089C0.033,-0.111 0.028,-0.134 0.028,-0.158C0.028,-0.196 0.036,-0.228 0.052,-0.255C0.068,-0.281 0.093,-0.302 0.128,-0.318C0.159,-0.332 0.195,-0.342 0.236,-0.347C0.278,-0.352 0.323,-0.356 0.371,-0.359L0.371,-0.376C0.371,-0.398 0.368,-0.415 0.361,-0.428C0.355,-0.442 0.346,-0.452 0.334,-0.459C0.322,-0.466 0.308,-0.471 0.291,-0.474C0.274,-0.476 0.257,-0.478 0.239,-0.478C0.218,-0.478 0.193,-0.474 0.164,-0.468C0.135,-0.462 0.107,-0.452 0.078,-0.44L0.073,-0.44L0.073,-0.534C0.09,-0.539 0.114,-0.544 0.146,-0.55C0.177,-0.556 0.208,-0.559 0.239,-0.559C0.277,-0.559 0.308,-0.556 0.334,-0.55C0.36,-0.544 0.383,-0.533 0.403,-0.518C0.423,-0.503 0.438,-0.484 0.448,-0.46C0.458,-0.436 0.462,-0.407 0.462,-0.373L0.462,-0L0.371,-0L0.371,-0.058Z" style="fill-rule:nonzero;"/>
        </g>
        <g transform="matrix(50,0,0,50,93.1026,55.36)">
            <path d="M0.486,-0L0.395,-0L0.395,-0.056C0.38,-0.044 0.368,-0.034 0.357,-0.026C0.347,-0.018 0.335,-0.011 0.321,-0.004C0.308,0.002 0.294,0.007 0.28,0.01C0.266,0.013 0.25,0.015 0.231,0.015C0.202,0.015 0.174,0.009 0.149,-0.003C0.124,-0.016 0.103,-0.034 0.085,-0.058C0.067,-0.082 0.053,-0.111 0.043,-0.147C0.034,-0.182 0.029,-0.223 0.029,-0.269C0.029,-0.316 0.035,-0.358 0.047,-0.393C0.06,-0.428 0.077,-0.458 0.099,-0.484C0.118,-0.508 0.142,-0.527 0.171,-0.54C0.199,-0.554 0.228,-0.561 0.259,-0.561C0.287,-0.561 0.31,-0.558 0.331,-0.552C0.351,-0.545 0.372,-0.536 0.395,-0.523L0.395,-0.76L0.486,-0.76L0.486,-0ZM0.395,-0.133L0.395,-0.447C0.372,-0.458 0.351,-0.466 0.333,-0.47C0.315,-0.474 0.296,-0.477 0.274,-0.477C0.227,-0.477 0.19,-0.459 0.164,-0.424C0.137,-0.388 0.124,-0.337 0.124,-0.271C0.124,-0.206 0.134,-0.157 0.154,-0.123C0.175,-0.089 0.208,-0.072 0.253,-0.072C0.277,-0.072 0.301,-0.078 0.326,-0.089C0.35,-0.1 0.373,-0.114 0.395,-0.133Z" style="fill-rule:nonzero;"/>
        </g>
        <g transform="matrix(50,0,0,50,120.739,55.36)">
            <rect x="0.068" y="-0.76" width="0.092" height="0.76" style="fill-rule:nonzero;"/>
        </g>
    </g>
    <g transform="matrix(1.17961,0,0,1.24074,150.894,-6.95985)">
        <g transform="matrix(50,0,0,50,36.2667,55.36)">
            <path d="M0.594,-0L0.485,-0L0.164,-0.627L0.164,-0L0.074,-0L0.074,-0.727L0.211,-0.727L0.503,-0.151L0.503,-0.727L0.594,-0.727L0.594,-0Z" style="fill:rgb(0,188,242);fill-rule:nonzero;"/>
        </g>
        <g transform="matrix(50,0,0,50,69.6407,55.36)">
            <path d="M0.371,-0.134L0.371,-0.286C0.349,-0.284 0.322,-0.281 0.288,-0.278C0.255,-0.274 0.228,-0.269 0.208,-0.263C0.183,-0.256 0.163,-0.244 0.147,-0.229C0.131,-0.213 0.123,-0.192 0.123,-0.164C0.123,-0.133 0.132,-0.109 0.149,-0.093C0.167,-0.077 0.193,-0.069 0.227,-0.069C0.256,-0.069 0.282,-0.076 0.305,-0.088C0.329,-0.101 0.351,-0.116 0.371,-0.134ZM0.371,-0.058C0.364,-0.053 0.354,-0.045 0.341,-0.035C0.329,-0.025 0.316,-0.017 0.305,-0.011C0.288,-0.003 0.273,0.004 0.258,0.008C0.242,0.013 0.221,0.015 0.194,0.015C0.171,0.015 0.15,0.011 0.13,0.002C0.11,-0.006 0.092,-0.018 0.077,-0.033C0.062,-0.048 0.05,-0.067 0.042,-0.089C0.033,-0.111 0.028,-0.134 0.028,-0.158C0.028,-0.196 0.036,-0.228 0.052,-0.255C0.068,-0.281 0.093,-0.302 0.128,-0.318C0.159,-0.332 0.195,-0.342 0.236,-0.347C0.278,-0.352 0.323,-0.356 0.371,-0.359L0.371,-0.376C0.371,-0.398 0.368,-0.415 0.361,-0.428C0.355,-0.442 0.346,-0.452 0.334,-0.459C0.322,-0.466 0.308,-0.471 0.291,-0.474C0.274,-0.476 0.257,-0.478 0.239,-0.478C0.218,-0.478 0.193,-0.474 0.164,-0.468C0.135,-0.462 0.107,-0.452 0.078,-0.44L0.073,-0.44L0.073,-0.534C0.09,-0.539 0.114,-0.544 0.146,-0.55C0.177,-0.556 0.208,-0.559 0.239,-0.559C0.277,-0.559 0.308,-0.556 0.334,-0.55C0.36,-0.544 0.383,-0.533 0.403,-0.518C0.423,-0.503 0.438,-0.484 0.448,-0.46C0.458,-0.436 0.462,-0.407 0.462,-0.373L0.462,-0L0.371,-0L0.371,-0.058Z" style="fill:rgb(0,188,242);fill-rule:nonzero;"/>
        </g>
        <g transform="matrix(50,0,0,50,95.544,55.36)">
            <path d="M0.495,-0.545L0.29,-0L0.207,-0L0.003,-0.545L0.102,-0.545L0.251,-0.125L0.399,-0.545L0.495,-0.545Z" style="fill:rgb(0,188,242);fill-rule:nonzero;"/>
        </g>
        <g transform="matrix(50,0,0,50,120.446,55.36)">
            <path d="M0.16,-0L0.068,-0L0.068,-0.545L0.16,-0.545L0.16,-0ZM0.167,-0.637L0.062,-0.637L0.062,-0.732L0.167,-0.732L0.167,-0.637Z" style="fill:rgb(0,188,242);fill-rule:nonzero;"/>
        </g>
    </g>
    <g transform="matrix(0.863696,0,0,0.863696,132.23,14.0443)">
        <path d="M10.529,20.017C9.193,22.403 8.244,25.034 7.765,27.825C6.263,28.47 4.886,29.35 3.682,30.421C3.968,25.209 5.664,20.371 8.395,16.281C8.448,17.139 8.731,18.008 9.375,18.781C9.78,19.268 10.157,19.679 10.529,20.017ZM12.652,11.269C16.902,7.301 22.372,4.622 28.434,3.861L27.517,7.82C24.304,8.413 21.309,9.632 18.663,11.344C17.852,11.329 16.995,11.337 16.112,11.337C16.112,11.337 14.32,11.196 12.652,11.269ZM21.904,54.423C23.53,55.158 25.251,55.72 27.042,56.087L27.967,60.077C24.179,59.536 20.631,58.247 17.479,56.362C19.07,55.954 20.56,55.292 21.904,54.423ZM36.958,56.087C38.807,55.708 40.58,55.121 42.253,54.352C43.631,55.201 45.155,55.835 46.778,56.207C43.562,58.176 39.924,59.522 36.033,60.077L36.958,56.087ZM56.198,27.615C55.538,23.955 54.067,20.576 51.978,17.67C52.881,16.697 53.807,15.386 53.927,14.019C57.606,18.499 59.941,24.124 60.31,30.276C59.101,29.18 57.714,28.276 56.198,27.615ZM46.537,12.173C43.611,10.023 40.193,8.505 36.483,7.82L35.566,3.861C41.151,4.562 46.233,6.891 50.322,10.357C48.998,10.472 47.636,11.298 46.537,12.173Z" style="fill:rgb(0,188,242);"/>
        <g transform="matrix(1.15303,-1.12354e-16,1.47014e-16,-0.887228,-4.90121,64.7336)">
            <path d="M35.782,18.194L32,0.827L28.218,18.194L35.782,18.194Z" style="fill:rgb(0,181,242);"/>
        </g>
        <g transform="matrix(-1.15303,1.12354e-16,-1.47014e-16,0.887228,68.8929,-0.733625)">
            <path d="M35.782,18.194L32,0.827L28.218,18.194L35.782,18.194Z" style="fill:rgb(0,181,242);"/>
        </g>
        <g transform="matrix(0.0779097,0,0,0.0779097,0.989181,2.51904)">
            <path d="M636.011,340.905C622.372,340.905 609.13,342.203 596.452,345.355L545.948,209.588L562.403,209.588C588.302,209.588 612.796,200.057 631.378,182.024L648.806,165.31C656.727,157.623 656.914,145.074 649.227,137.152C641.54,129.231 628.889,129.095 620.971,136.782L603.542,153.318C592.461,164.074 577.849,169.619 562.406,169.619L517.166,169.619C510.617,169.619 504.484,173.232 500.751,178.611C497.018,183.993 496.155,191.062 498.446,197.196L517.667,248.811C517.545,248.809 517.419,249.187 517.297,249.187C517.254,249.187 517.212,249.552 517.166,249.552L261.451,249.552L226.918,191.369L264.428,178.326C273.665,175.153 279.253,166.203 277.646,156.568C276.037,146.936 267.705,140.312 257.937,140.312L148.135,140.312C132.748,140.312 120.225,152.318 120.225,167.706C120.225,191.528 139.585,210.656 163.379,210.656C168.148,210.656 172.877,209.732 177.439,208.168L188.371,204.35L223.398,262.957L196.495,343.65C187.67,341.867 178.606,340.745 169.336,340.45C122.471,338.95 78.599,356.804 46.188,390.267C15.03,422.437 -1.346,464.85 0.085,509.693C2.835,595.853 72.484,665.499 158.644,668.248C160.437,668.304 162.214,668.334 163.994,668.334C208.786,668.334 250.623,650.439 281.795,618.258C307.011,592.218 322.537,558.628 326.784,523.99L358.893,523.99C365.815,529.319 374.776,533.673 384.576,533.673C406.413,533.673 424.18,515.991 424.18,494.151C424.18,487.061 422.283,480.458 419.005,474.692L531.024,284.704L559.142,360.079C507.359,387.68 472.02,442.226 472.02,504.886C472.02,595.312 545.585,668.88 636.011,668.88C726.437,668.88 800,595.315 800,504.891C800,414.468 726.437,340.905 636.011,340.905ZM482.209,289.521L384.674,454.96C384.639,454.96 384.607,454.794 384.576,454.794C384.461,454.794 384.352,455.05 384.237,455.053L285.304,289.524L482.209,289.524L482.209,289.521ZM250.437,308.194L350.028,474.759C348.382,477.693 347.127,481.362 346.266,484.026L326.746,484.026C319.843,428.073 283.945,379.79 234.402,356.13L250.437,308.194ZM198.36,484.026C197.02,481.362 195.48,479.96 193.756,478.076L217.376,407.133C245.939,422.92 266.834,452.053 272.887,484.026L198.36,484.026ZM243.517,581.185C221.629,603.782 192.064,615.929 160.346,614.904C102.203,613.049 55.205,566.094 53.35,507.95C52.383,477.658 63.432,449.034 84.468,427.319C105.512,405.593 133.753,393.635 163.989,393.635C165.201,393.635 166.413,393.661 167.636,393.699C171.638,393.826 175.579,394.192 179.464,394.735L155.574,466.409C138.072,470.504 124.984,486.205 124.984,504.939C124.984,526.777 142.75,544.376 164.586,544.376C179.379,544.376 192.282,537.315 199.082,523.993L272.885,523.993C269.018,545.308 258.976,565.222 243.517,581.185ZM636.011,615.599C574.972,615.599 525.309,565.936 525.309,504.897C525.309,465.111 546.414,430.175 578.009,410.658L615.572,511.334C618.57,519.373 626.193,524.336 634.295,524.336C636.616,524.336 638.977,523.931 641.279,523.068C651.62,519.213 656.874,507.7 653.013,497.362L615.261,396.174C621.986,394.892 628.916,394.194 636.011,394.194C697.051,394.194 746.711,443.857 746.711,504.897C746.711,565.936 697.054,615.599 636.011,615.599Z" style="fill-rule:nonzero;"/>
        </g>
    </g>
</svg>
