<?xml version="1.0" encoding="UTF-8" standalone="no"?>
<!DOCTYPE svg PUBLIC "-//W3C//DTD SVG 1.1//EN" "http://www.w3.org/Graphics/SVG/1.1/DTD/svg11.dtd">
<svg width="100%" height="100%" viewBox="0 0 320 80" version="1.1" xmlns="http://www.w3.org/2000/svg" xmlns:xlink="http://www.w3.org/1999/xlink" xml:space="preserve" xmlns:serif="http://www.serif.com/" style="fill-rule:evenodd;clip-rule:evenodd;">
    <g transform="matrix(0.32,0,0,0.32,129.364,7.87597)">
        <circle cx="95.736" cy="100.388" r="75.065"/>
    </g>
    <g transform="matrix(0.32,0,0,0.32,131.886,-7.37984)">
        <path d="M87.855,48.062L95.866,75.452L79.845,75.452L87.855,48.062Z"/>
    </g>
    <g transform="matrix(1.95943e-17,-0.32,0.32,1.95943e-17,112.62,68.1137)">
        <path d="M87.855,48.062L95.866,75.452L79.845,75.452L87.855,48.062Z"/>
    </g>
    <g transform="matrix(-1.95943e-17,-0.32,-0.32,1.95943e-17,207.38,68.1137)">
        <path d="M87.855,48.062L95.866,75.452L79.845,75.452L87.855,48.062Z"/>
    </g>
    <g transform="matrix(-0.32,3.91887e-17,-3.91887e-17,-0.32,188.114,87.3798)">
        <path d="M87.855,48.062L95.866,75.452L79.845,75.452L87.855,48.062Z"/>
    </g>
    <g id="Fahrrad_aus_Zusatzzeichen_1000-32.svg" transform="matrix(0.0976693,0,0,0.0976693,160,36.7369)">
        <g transform="matrix(1,0,0,1,-220,-180)">
            <clipPath id="_clip1">
                <rect x="0" y="0" width="440" height="360"/>
            </clipPath>
            <g clip-path="url(#_clip1)">
                <g id="g1999" transform="matrix(0.427115,0,0,0.427115,5.4781,88.0021)">
                    <g id="g2015">
                        <g id="g19991" serif:id="g1999">
                            <circle id="circle2001" cx="215" cy="409" r="161" style="fill:none;stroke:rgb(0,188,242);stroke-width:40px;"/>
                            <circle id="circle2003" cx="790" cy="406" r="161" style="fill:none;stroke:rgb(0,188,242);stroke-width:40px;"/>
                            <path id="path2005" d="M429.484,15.467C296.918,16.759 319.4,1.771 248.078,230.985C189.975,414.126 196.304,394.154 196,407C195.787,416.98 203.843,424.893 213.967,425.57C235.021,423.442 226.165,427.847 299.157,201.181C565.87,482.536 465.806,436.912 609.341,442.626C797.983,440.817 813.316,452.446 815.555,424.795C815.297,415.406 810.904,409.807 681.438,121.675L693.842,87.565L736.48,86.789L734.93,51.128L576.005,51.128C561.965,70.337 581.69,70.251 652.754,86.014L640.35,120.9L323.276,121.675C344.638,47.08 332.579,51.731 428.709,51.904L429.484,15.467ZM314.114,159.91L624.378,159.36L534.709,400.309L314.114,159.91ZM661.785,174.213L573.767,405.26L766.307,405.81L661.785,174.213Z" style="fill:rgb(0,188,242);"/>
                        </g>
                    </g>
                </g>
            </g>
        </g>
    </g>
    <g transform="matrix(1,0,0,1,-8.00625,7.69333)">
        <path d="M45.96,46.107C45.96,45.084 45.993,44.484 46.06,44.307C46.127,44.129 46.338,44.04 46.693,44.04C47.049,44.04 47.26,44.129 47.327,44.307C47.393,44.484 47.427,45.084 47.427,46.107C47.427,47.084 47.393,47.662 47.327,47.84C47.26,48.018 47.049,48.107 46.693,48.107C46.338,48.107 46.127,48.018 46.06,47.84C45.993,47.662 45.96,47.084 45.96,46.107ZM46.06,42.04C45.993,41.862 45.96,41.262 45.96,40.24C45.96,39.218 45.993,38.618 46.06,38.44C46.127,38.262 46.338,38.173 46.693,38.173C47.049,38.173 47.26,38.262 47.327,38.44C47.393,38.618 47.427,39.218 47.427,40.24C47.427,41.262 47.393,41.862 47.327,42.04C47.26,42.218 47.049,42.307 46.693,42.307C46.338,42.307 46.127,42.218 46.06,42.04ZM42.493,33.307C42.716,33.04 42.938,32.907 43.16,32.907C43.56,32.907 44.182,33.284 45.027,34.04C45.782,34.751 46.16,35.262 46.16,35.573C46.16,35.751 46.027,35.951 45.76,36.173C45.671,36.262 45.582,36.307 45.493,36.307C45.271,36.307 44.693,35.907 43.76,35.107C42.871,34.262 42.427,33.729 42.427,33.507C42.427,33.418 42.449,33.351 42.493,33.307ZM35.96,33.14C35.782,33.073 35.693,32.862 35.693,32.507C35.693,32.151 35.782,31.94 35.96,31.873C36.138,31.807 36.738,31.773 37.76,31.773C38.782,31.773 39.382,31.807 39.56,31.873C39.738,31.94 39.827,32.151 39.827,32.507C39.827,32.862 39.738,33.073 39.56,33.14C39.382,33.207 38.782,33.24 37.76,33.24C36.738,33.24 36.138,33.207 35.96,33.14ZM29.56,33.14C29.382,33.073 29.293,32.862 29.293,32.507C29.293,32.151 29.382,31.94 29.56,31.873C29.738,31.807 30.338,31.773 31.36,31.773C32.338,31.773 32.916,31.807 33.093,31.873C33.271,31.94 33.36,32.151 33.36,32.507C33.36,32.862 33.271,33.073 33.093,33.14C32.916,33.207 32.338,33.24 31.36,33.24C30.338,33.24 29.738,33.207 29.56,33.14ZM42.493,30.173C41.604,29.862 38.493,29.707 33.16,29.707L25.227,29.707L25.227,30.773C25.227,31.218 25.271,31.496 25.36,31.607C25.449,31.718 25.693,31.773 26.093,31.773C26.449,31.773 26.682,31.818 26.793,31.907C26.904,31.996 26.96,32.196 26.96,32.507C26.96,32.818 26.904,33.018 26.793,33.107C26.682,33.196 26.449,33.24 26.093,33.24C25.693,33.24 25.449,33.284 25.36,33.373C25.271,33.462 25.227,33.707 25.227,34.107L25.227,34.973L31.36,34.973C34.204,34.973 35.993,35.007 36.727,35.073C37.46,35.14 38.204,35.351 38.96,35.707C40.916,36.596 42.271,37.973 43.027,39.84C43.782,41.707 44.16,44.707 44.16,48.84L44.16,53.973L45.96,53.973L45.96,52.24C45.96,51.396 45.993,50.884 46.06,50.707C46.127,50.529 46.338,50.44 46.693,50.44C47.049,50.44 47.26,50.529 47.327,50.707C47.393,50.884 47.427,51.396 47.427,52.24L47.427,53.973L49.16,53.973C49.116,52.151 49.093,49.429 49.093,45.807C49.093,42.184 49.071,39.484 49.027,37.707L47.893,35.507C46.56,32.751 44.76,30.973 42.493,30.173ZM40.893,17.64C40.271,17.196 38.538,16.951 35.693,16.907L31.36,16.84L31.36,28.573L35.96,28.507L40.627,28.373L41.493,27.573C42.471,26.596 42.96,25.196 42.96,23.373L42.96,22.44C42.827,20.129 42.138,18.529 40.893,17.64ZM24.027,55.107L24.027,9.84L34.16,9.907C38.916,9.951 41.838,10.007 42.927,10.073C44.016,10.14 44.871,10.329 45.493,10.64C46.249,11.04 47.016,11.651 47.793,12.473C48.571,13.296 49.116,14.107 49.427,14.907C50.182,16.551 50.56,18.951 50.56,22.107C50.56,22.862 50.538,23.44 50.493,23.84C50.316,27.129 49.671,29.551 48.56,31.107C48.027,31.907 47.76,32.44 47.76,32.707C47.76,33.018 47.916,33.418 48.227,33.907C48.671,34.573 49.093,35.507 49.493,36.707C49.804,37.596 49.982,38.518 50.027,39.473C50.071,40.429 50.138,42.907 50.227,46.907L50.36,55.107L43.027,55.107L43.027,49.64C43.027,45.862 42.86,43.196 42.527,41.64C42.193,40.084 41.516,38.818 40.493,37.84C39.782,37.173 39.016,36.729 38.193,36.507C37.371,36.284 36.116,36.173 34.427,36.173L31.36,36.173L31.36,55.107L24.027,55.107Z" style="fill-rule:nonzero;"/>
        <path d="M79.627,53.04C79.582,52.862 79.56,52.373 79.56,51.573C79.56,50.773 79.582,50.284 79.627,50.107C79.671,49.929 79.827,49.84 80.093,49.84C80.36,49.84 80.527,49.94 80.593,50.14C80.66,50.34 80.693,50.818 80.693,51.573C80.693,52.329 80.66,52.807 80.593,53.007C80.527,53.207 80.36,53.307 80.093,53.307C79.827,53.307 79.671,53.218 79.627,53.04ZM79.627,47.173C79.582,46.996 79.56,46.418 79.56,45.44C79.56,44.462 79.582,43.873 79.627,43.673C79.671,43.473 79.827,43.373 80.093,43.373C80.36,43.373 80.527,43.484 80.593,43.707C80.66,43.929 80.693,44.507 80.693,45.44C80.693,46.373 80.66,46.94 80.593,47.14C80.527,47.34 80.36,47.44 80.093,47.44C79.827,47.44 79.671,47.351 79.627,47.173ZM79.627,40.407C79.582,40.207 79.56,39.662 79.56,38.773C79.56,37.884 79.582,37.351 79.627,37.173C79.671,36.996 79.827,36.907 80.093,36.907C80.36,36.907 80.527,37.007 80.593,37.207C80.66,37.407 80.693,37.929 80.693,38.773C80.693,39.618 80.66,40.151 80.593,40.373C80.527,40.596 80.36,40.707 80.093,40.707C79.827,40.707 79.671,40.607 79.627,40.407ZM79.627,33.973C79.582,33.796 79.56,33.307 79.56,32.507C79.56,31.707 79.582,31.207 79.627,31.007C79.671,30.807 79.827,30.707 80.093,30.707C80.36,30.707 80.527,30.818 80.593,31.04C80.66,31.262 80.693,31.751 80.693,32.507C80.693,33.262 80.66,33.74 80.593,33.94C80.527,34.14 80.36,34.24 80.093,34.24C79.827,34.24 79.671,34.151 79.627,33.973ZM76.56,48.04L76.56,36.307L72.693,36.307C69.182,36.307 67.049,36.662 66.293,37.373C65.271,38.262 64.76,39.818 64.76,42.04C64.76,44.218 65.204,45.751 66.093,46.64C66.716,47.262 67.393,47.651 68.127,47.807C68.86,47.962 70.316,48.04 72.493,48.04L76.56,48.04ZM82.493,53.907L82.493,30.173L77.76,30.173L77.76,53.907L82.493,53.907ZM65.093,29.707C66.027,29.351 66.993,29.14 67.993,29.073C68.993,29.007 71.449,28.973 75.36,28.973L83.627,28.973L83.627,55.107L63.827,55.107L62.027,54.107C60.027,53.04 58.649,51.351 57.893,49.04C57.538,47.929 57.36,45.684 57.36,42.307C57.36,39.862 57.393,38.34 57.46,37.74C57.527,37.14 57.738,36.462 58.093,35.707C59.427,32.862 61.76,30.862 65.093,29.707Z" style="fill-rule:nonzero;"/>
        <path d="M112.393,53.34C112.327,53.14 112.293,52.507 112.293,51.44C112.293,50.373 112.327,49.74 112.393,49.54C112.46,49.34 112.671,49.24 113.027,49.24C113.382,49.24 113.593,49.34 113.66,49.54C113.727,49.74 113.76,50.373 113.76,51.44C113.76,52.507 113.727,53.14 113.66,53.34C113.593,53.54 113.382,53.64 113.027,53.64C112.671,53.64 112.46,53.54 112.393,53.34ZM112.393,46.873C112.327,46.673 112.293,46.04 112.293,44.973C112.293,43.907 112.327,43.273 112.393,43.073C112.46,42.873 112.671,42.773 113.027,42.773C113.382,42.773 113.593,42.873 113.66,43.073C113.727,43.273 113.76,43.907 113.76,44.973C113.76,46.04 113.727,46.673 113.66,46.873C113.593,47.073 113.382,47.173 113.027,47.173C112.671,47.173 112.46,47.073 112.393,46.873ZM112.393,40.173C112.327,39.996 112.293,39.396 112.293,38.373C112.293,37.351 112.327,36.751 112.393,36.573C112.46,36.396 112.671,36.307 113.027,36.307C113.382,36.307 113.593,36.396 113.66,36.573C113.727,36.751 113.76,37.351 113.76,38.373C113.76,39.396 113.727,39.996 113.66,40.173C113.593,40.351 113.382,40.44 113.027,40.44C112.671,40.44 112.46,40.351 112.393,40.173ZM112.393,33.707C112.327,33.529 112.293,32.929 112.293,31.907C112.293,30.884 112.327,30.284 112.393,30.107C112.46,29.929 112.671,29.84 113.027,29.84C113.382,29.84 113.593,29.929 113.66,30.107C113.727,30.284 113.76,30.884 113.76,31.907C113.76,32.929 113.727,33.529 113.66,33.707C113.593,33.884 113.382,33.973 113.027,33.973C112.671,33.973 112.46,33.884 112.393,33.707ZM112.393,27.24C112.327,27.062 112.293,26.462 112.293,25.44C112.293,24.418 112.327,23.818 112.393,23.64C112.46,23.462 112.671,23.373 113.027,23.373C113.382,23.373 113.593,23.462 113.66,23.64C113.727,23.818 113.76,24.418 113.76,25.44C113.76,26.462 113.727,27.062 113.66,27.24C113.593,27.418 113.382,27.507 113.027,27.507C112.671,27.507 112.46,27.418 112.393,27.24ZM112.393,20.507C112.327,20.329 112.293,19.729 112.293,18.707C112.293,17.684 112.327,17.084 112.393,16.907C112.46,16.729 112.671,16.64 113.027,16.64C113.382,16.64 113.593,16.729 113.66,16.907C113.727,17.084 113.76,17.684 113.76,18.707C113.76,19.729 113.727,20.329 113.66,20.507C113.593,20.684 113.382,20.773 113.027,20.773C112.671,20.773 112.46,20.684 112.393,20.507ZM112.393,14.64C112.327,14.462 112.293,13.907 112.293,12.973C112.293,12.04 112.327,11.484 112.393,11.307C112.46,11.129 112.671,11.04 113.027,11.04C113.382,11.04 113.593,11.129 113.66,11.307C113.727,11.484 113.76,12.04 113.76,12.973C113.76,13.907 113.727,14.462 113.66,14.64C113.593,14.818 113.382,14.907 113.027,14.907C112.671,14.907 112.46,14.818 112.393,14.64ZM109.36,48.04L109.36,36.573L105.027,36.573C102.493,36.573 100.86,36.707 100.127,36.973C99.393,37.24 98.827,37.884 98.427,38.907C98.071,39.84 97.893,40.951 97.893,42.24C97.893,43.707 98.116,44.862 98.56,45.707C99.049,46.729 99.693,47.373 100.493,47.64C101.293,47.907 102.893,48.04 105.293,48.04L109.36,48.04ZM115.56,54.24L115.56,10.44L110.56,10.44L110.56,54.24L115.56,54.24ZM109.36,28.973L109.36,9.307L116.693,9.307L116.693,55.373L107.36,55.373C101.716,55.373 98.249,55.251 96.96,55.007C95.671,54.762 94.404,54.018 93.16,52.773C91.916,51.529 91.149,50.34 90.86,49.207C90.571,48.073 90.427,45.84 90.427,42.507C90.427,40.018 90.471,38.462 90.56,37.84C90.649,37.218 90.893,36.44 91.293,35.507C92.449,33.018 94.338,31.196 96.96,30.04C97.938,29.596 98.727,29.329 99.327,29.24C99.927,29.151 101.538,29.084 104.16,29.04L109.36,28.973Z" style="fill-rule:nonzero;"/>
        <path d="M126.393,27.44C126.327,27.262 126.293,26.662 126.293,25.64C126.293,24.618 126.327,24.018 126.393,23.84C126.46,23.662 126.671,23.573 127.027,23.573C127.382,23.573 127.593,23.662 127.66,23.84C127.727,24.018 127.76,24.618 127.76,25.64C127.76,26.662 127.727,27.262 127.66,27.44C127.593,27.618 127.382,27.707 127.027,27.707C126.671,27.707 126.46,27.618 126.393,27.44ZM126.293,19.173C126.293,18.196 126.327,17.618 126.393,17.44C126.46,17.262 126.671,17.173 127.027,17.173C127.382,17.173 127.593,17.262 127.66,17.44C127.727,17.618 127.76,18.196 127.76,19.173C127.76,20.196 127.727,20.796 127.66,20.973C127.593,21.151 127.382,21.24 127.027,21.24C126.671,21.24 126.46,21.151 126.393,20.973C126.327,20.796 126.293,20.196 126.293,19.173ZM126.393,14.573C126.327,14.396 126.293,13.84 126.293,12.907C126.293,11.973 126.327,11.429 126.393,11.273C126.46,11.118 126.671,11.04 127.027,11.04C127.382,11.04 127.593,11.118 127.66,11.273C127.727,11.429 127.76,11.973 127.76,12.907C127.76,13.84 127.727,14.396 127.66,14.573C127.593,14.751 127.382,14.84 127.027,14.84C126.671,14.84 126.46,14.751 126.393,14.573ZM129.493,31.44L129.493,10.44L124.56,10.44L124.56,31.44L125.427,31.44C125.782,31.44 126.016,31.407 126.127,31.34C126.238,31.273 126.293,31.084 126.293,30.773C126.293,30.462 126.338,30.262 126.427,30.173C126.516,30.084 126.716,30.04 127.027,30.04C127.338,30.04 127.538,30.084 127.627,30.173C127.716,30.262 127.76,30.462 127.76,30.773C127.76,31.084 127.816,31.273 127.927,31.34C128.038,31.407 128.271,31.44 128.627,31.44L129.493,31.44ZM123.36,54.84L123.36,9.24L130.693,9.24L130.693,54.84L123.36,54.84Z" style="fill-rule:nonzero;"/>
    </g>
    <g transform="matrix(1,0,0,1,-11.4886,18.2267)">
        <path d="M228.907,35.973C229.129,35.751 229.307,35.64 229.44,35.64C229.796,35.64 230.218,36.24 230.707,37.44C231.062,38.284 231.24,38.84 231.24,39.107C231.24,39.507 230.951,39.707 230.373,39.707C230.151,39.707 229.84,39.251 229.44,38.34C229.04,37.429 228.84,36.729 228.84,36.24C228.84,36.107 228.862,36.018 228.907,35.973ZM226.773,29.773C227.173,29.773 227.618,30.329 228.107,31.44C228.551,32.462 228.773,33.062 228.773,33.24C228.773,33.418 228.596,33.551 228.24,33.64L228.04,33.64C227.729,33.64 227.329,33.173 226.84,32.24C226.484,31.44 226.307,30.818 226.307,30.373C226.307,29.973 226.462,29.773 226.773,29.773ZM224.373,23.907C224.729,23.907 225.129,24.44 225.573,25.507C225.973,26.44 226.173,27.04 226.173,27.307C226.173,27.573 225.996,27.751 225.64,27.84L225.44,27.84C225.084,27.84 224.684,27.329 224.24,26.307C223.884,25.462 223.707,24.84 223.707,24.44C223.707,24.084 223.929,23.907 224.373,23.907ZM221.44,18.173C221.796,17.907 221.996,17.773 222.04,17.773C222.173,17.773 222.462,18.307 222.907,19.373C223.351,20.44 223.573,21.107 223.573,21.373C223.573,21.729 223.373,21.907 222.973,21.907C222.573,21.907 222.129,21.351 221.64,20.24C221.284,19.484 221.107,18.973 221.107,18.707C221.107,18.484 221.218,18.307 221.44,18.173ZM218.64,12.707C218.64,12.484 218.707,12.307 218.84,12.173C218.973,12.04 219.084,11.973 219.173,11.973C219.529,11.973 219.951,12.573 220.44,13.773C220.84,14.707 221.04,15.284 221.04,15.507C221.04,15.64 220.996,15.751 220.907,15.84C220.729,15.973 220.551,16.04 220.373,16.04C219.973,16.04 219.596,15.573 219.24,14.64C218.84,13.707 218.64,13.062 218.64,12.707ZM216.107,6.44C216.196,6.218 216.351,6.107 216.573,6.107C217.062,6.107 217.529,6.707 217.973,7.907C218.329,8.884 218.507,9.462 218.507,9.64C218.507,9.773 218.44,9.884 218.307,9.973C217.951,10.151 217.707,10.24 217.573,10.24C217.396,10.24 217.096,9.74 216.673,8.74C216.251,7.74 216.04,7.04 216.04,6.64L216.107,6.573L216.107,6.44ZM213.507,0.573C213.64,0.351 213.796,0.24 213.973,0.24C214.418,0.24 214.862,0.773 215.307,1.84C215.707,2.773 215.907,3.373 215.907,3.64C215.907,3.907 215.729,4.084 215.373,4.173C214.973,4.307 214.684,4.107 214.507,3.573C214.507,3.529 214.407,3.307 214.207,2.907C214.007,2.507 213.829,2.118 213.673,1.74C213.518,1.362 213.44,1.062 213.44,0.84C213.44,0.707 213.462,0.618 213.507,0.573ZM219.107,6.24L216.44,-0.16L213.84,-0.227L212.04,-0.227C211.551,-0.227 211.307,-0.204 211.307,-0.16C211.307,0.062 211.729,1.129 212.573,3.04C213.507,5.084 214.729,7.951 216.24,11.64C217.751,15.329 218.729,17.684 219.173,18.707C219.929,20.484 220.996,22.996 222.373,26.24C223.751,29.484 224.684,31.684 225.173,32.84C226.151,35.018 227.418,38.018 228.973,41.84C229.196,42.329 229.373,42.629 229.507,42.74C229.64,42.851 229.884,42.907 230.24,42.907C230.862,42.907 231.173,42.707 231.173,42.307C231.173,41.951 231.396,41.773 231.84,41.773C232.329,41.773 232.64,41.951 232.773,42.307C232.818,42.484 232.973,42.64 233.24,42.773C233.507,42.907 233.762,42.962 234.007,42.94C234.251,42.918 234.373,42.818 234.373,42.64C234.373,42.507 233.662,40.718 232.24,37.273C230.818,33.829 229.596,30.951 228.573,28.64C227.551,26.284 224.396,18.818 219.107,6.24ZM209.84,44.107L209.84,-1.493L213.44,-1.493C215.173,-1.493 216.229,-1.46 216.607,-1.393C216.984,-1.327 217.218,-1.138 217.307,-0.827C217.307,-0.693 218.596,2.396 221.173,8.44C223.751,14.529 225.64,19.084 226.84,22.107C227.507,23.84 227.929,24.707 228.107,24.707C228.373,24.707 228.507,21.462 228.507,14.973L228.507,-1.493L235.84,-1.493L235.84,44.107L232.173,44.107C229.729,44.107 228.507,43.973 228.507,43.707C228.507,43.351 227.751,41.418 226.24,37.907C224.062,32.884 221.662,27.196 219.04,20.84L217.307,16.84L217.173,30.44L217.173,44.107L209.84,44.107Z" style="fill:rgb(0,188,242);fill-rule:nonzero;"/>
        <path d="M264.84,42.373C264.796,42.196 264.773,41.707 264.773,40.907C264.773,40.107 264.796,39.618 264.84,39.44C264.884,39.262 265.04,39.173 265.307,39.173C265.573,39.173 265.74,39.273 265.807,39.473C265.873,39.673 265.907,40.151 265.907,40.907C265.907,41.662 265.873,42.14 265.807,42.34C265.74,42.54 265.573,42.64 265.307,42.64C265.04,42.64 264.884,42.551 264.84,42.373ZM264.84,36.507C264.796,36.329 264.773,35.751 264.773,34.773C264.773,33.796 264.796,33.207 264.84,33.007C264.884,32.807 265.04,32.707 265.307,32.707C265.573,32.707 265.74,32.818 265.807,33.04C265.873,33.262 265.907,33.84 265.907,34.773C265.907,35.707 265.873,36.273 265.807,36.473C265.74,36.673 265.573,36.773 265.307,36.773C265.04,36.773 264.884,36.684 264.84,36.507ZM264.84,29.74C264.796,29.54 264.773,28.996 264.773,28.107C264.773,27.218 264.796,26.684 264.84,26.507C264.884,26.329 265.04,26.24 265.307,26.24C265.573,26.24 265.74,26.34 265.807,26.54C265.873,26.74 265.907,27.262 265.907,28.107C265.907,28.951 265.873,29.484 265.807,29.707C265.74,29.929 265.573,30.04 265.307,30.04C265.04,30.04 264.884,29.94 264.84,29.74ZM264.84,23.307C264.796,23.129 264.773,22.64 264.773,21.84C264.773,21.04 264.796,20.54 264.84,20.34C264.884,20.14 265.04,20.04 265.307,20.04C265.573,20.04 265.74,20.151 265.807,20.373C265.873,20.596 265.907,21.084 265.907,21.84C265.907,22.596 265.873,23.073 265.807,23.273C265.74,23.473 265.573,23.573 265.307,23.573C265.04,23.573 264.884,23.484 264.84,23.307ZM261.773,37.373L261.773,25.64L257.907,25.64C254.396,25.64 252.262,25.996 251.507,26.707C250.484,27.596 249.973,29.151 249.973,31.373C249.973,33.551 250.418,35.084 251.307,35.973C251.929,36.596 252.607,36.984 253.34,37.14C254.073,37.296 255.529,37.373 257.707,37.373L261.773,37.373ZM267.707,43.24L267.707,19.507L262.973,19.507L262.973,43.24L267.707,43.24ZM250.307,19.04C251.24,18.684 252.207,18.473 253.207,18.407C254.207,18.34 256.662,18.307 260.573,18.307L268.84,18.307L268.84,44.44L249.04,44.44L247.24,43.44C245.24,42.373 243.862,40.684 243.107,38.373C242.751,37.262 242.573,35.018 242.573,31.64C242.573,29.196 242.607,27.673 242.673,27.073C242.74,26.473 242.951,25.796 243.307,25.04C244.64,22.196 246.973,20.196 250.307,19.04Z" style="fill:rgb(0,188,242);fill-rule:nonzero;"/>
        <path d="M286.973,38.573C287.151,38.44 287.351,38.373 287.573,38.373C287.973,38.373 288.373,38.973 288.773,40.173C289.084,41.062 289.24,41.662 289.24,41.973C289.24,42.151 289.173,42.284 289.04,42.373C288.818,42.507 288.64,42.573 288.507,42.573C288.196,42.573 287.796,41.951 287.307,40.707C286.996,39.818 286.84,39.24 286.84,38.973C286.84,38.796 286.884,38.662 286.973,38.573ZM284.44,32.573C284.44,32.262 284.684,32.107 285.173,32.107C285.618,32.107 286.062,32.729 286.507,33.973C286.818,34.862 286.973,35.418 286.973,35.64C286.973,35.862 286.818,36.04 286.507,36.173C286.151,36.396 285.929,36.462 285.84,36.373C285.707,36.284 285.44,35.684 285.04,34.573C284.64,33.462 284.44,32.796 284.44,32.573ZM282.107,25.973C282.24,25.707 282.418,25.573 282.64,25.573C283.084,25.573 283.551,26.218 284.04,27.507C284.396,28.484 284.573,29.129 284.573,29.44C284.573,29.796 284.351,29.973 283.907,29.973C283.64,29.973 283.262,29.462 282.773,28.44C282.284,27.418 282.04,26.662 282.04,26.173L282.04,26.107L282.107,25.973ZM280.64,19.44C281.04,19.44 281.44,20.062 281.84,21.307C282.151,22.196 282.307,22.751 282.307,22.973C282.307,23.151 282.173,23.307 281.907,23.44C281.551,23.662 281.329,23.773 281.24,23.773C281.062,23.773 280.807,23.229 280.473,22.14C280.14,21.051 279.973,20.307 279.973,19.907C279.973,19.596 280.196,19.44 280.64,19.44ZM286.173,28.84L282.44,18.507L279.907,18.507C278.173,18.507 277.307,18.573 277.307,18.707C277.307,18.796 277.662,19.796 278.373,21.707C279.129,23.707 280.251,26.74 281.74,30.807C283.229,34.873 284.129,37.351 284.44,38.24L286.44,43.573L289.973,43.573C290.951,43.573 291.44,43.418 291.44,43.107C291.44,42.929 291.173,42.151 290.64,40.773C290.551,40.507 290.284,39.807 289.84,38.673C289.396,37.54 288.818,36.007 288.107,34.073C287.396,32.14 286.751,30.396 286.173,28.84ZM275.773,17.507C275.773,17.373 276.996,17.307 279.44,17.307L283.107,17.307L285.64,24.107C286.04,25.173 287.04,27.907 288.64,32.307C288.951,33.24 289.196,33.707 289.373,33.707C289.418,33.707 289.851,32.673 290.673,30.607C291.496,28.54 292.351,26.262 293.24,23.773C294.129,21.284 294.729,19.551 295.04,18.573L295.44,17.307L299.173,17.307C301.707,17.307 302.973,17.396 302.973,17.573C302.973,17.751 302.529,19.062 301.64,21.507C298.351,30.173 295.929,36.818 294.373,41.44L293.24,44.773L289.507,44.84L285.773,44.84L283.907,39.773C278.484,25.151 275.773,17.729 275.773,17.507Z" style="fill:rgb(0,188,242);fill-rule:nonzero;"/>
        <path d="M312.873,42.707C312.807,42.529 312.773,41.973 312.773,41.04C312.773,40.107 312.807,39.562 312.873,39.407C312.94,39.251 313.151,39.173 313.507,39.173C313.862,39.173 314.073,39.251 314.14,39.407C314.207,39.562 314.24,40.107 314.24,41.04C314.24,41.973 314.207,42.529 314.14,42.707C314.073,42.884 313.862,42.973 313.507,42.973C313.151,42.973 312.94,42.884 312.873,42.707ZM312.873,36.473C312.807,36.273 312.773,35.64 312.773,34.573C312.773,33.507 312.807,32.873 312.873,32.673C312.94,32.473 313.151,32.373 313.507,32.373C313.862,32.373 314.073,32.473 314.14,32.673C314.207,32.873 314.24,33.507 314.24,34.573C314.24,35.64 314.207,36.273 314.14,36.473C314.073,36.673 313.862,36.773 313.507,36.773C313.151,36.773 312.94,36.673 312.873,36.473ZM312.873,29.773C312.807,29.596 312.773,28.996 312.773,27.973C312.773,26.951 312.807,26.351 312.873,26.173C312.94,25.996 313.151,25.907 313.507,25.907C313.862,25.907 314.073,25.996 314.14,26.173C314.207,26.351 314.24,26.951 314.24,27.973C314.24,28.996 314.207,29.596 314.14,29.773C314.073,29.951 313.862,30.04 313.507,30.04C313.151,30.04 312.94,29.951 312.873,29.773ZM312.873,23.34C312.807,23.184 312.773,22.64 312.773,21.707C312.773,20.773 312.807,20.218 312.873,20.04C312.94,19.862 313.151,19.773 313.507,19.773C313.862,19.773 314.073,19.862 314.14,20.04C314.207,20.218 314.24,20.773 314.24,21.707C314.24,22.64 314.207,23.184 314.14,23.34C314.073,23.496 313.862,23.573 313.507,23.573C313.151,23.573 312.94,23.496 312.873,23.34ZM315.973,43.573L315.973,19.173L311.04,19.173L311.04,43.573L315.973,43.573ZM309.84,44.707L309.84,18.04L317.173,18.04L317.173,44.707L309.84,44.707ZM309.84,10.107L309.84,3.04L317.173,3.04L317.173,10.107L309.84,10.107Z" style="fill:rgb(0,188,242);fill-rule:nonzero;"/>
    </g>
</svg>
